<mxfile host="app.diagrams.net" modified="2023-05-20T03:50:32.762Z" agent="Mozilla/5.0 (Windows NT 10.0; Win64; x64) AppleWebKit/537.36 (KHTML, like Gecko) Chrome/113.0.0.0 Safari/537.36 Edg/113.0.1774.42" version="21.3.2" etag="JAwy1P9fu2ZUR9wB8oUp" type="github">
  <diagram name="第 1 页" id="k_Ih8rQC9uvBhB5a-sKy">
    <mxGraphModel>
      <root>
        <mxCell id="0" />
        <mxCell id="1" parent="0" />
      </root>
    </mxGraphModel>
  </diagram>
</mxfile>
